<?xml version="1.0" encoding="UTF-8" standalone="no"?>
<svg width="998px" height="966px" viewBox="0 0 998 966" version="1.1" xmlns="http://www.w3.org/2000/svg" xmlns:xlink="http://www.w3.org/1999/xlink">
    <!-- Generator: Sketch 41 (35326) - http://www.bohemiancoding.com/sketch -->
    <title>Shape</title>
    <desc>Created with Sketch.</desc>
    <defs></defs>
    <g id="Page-1" stroke="none" stroke-width="1" fill="none" fill-rule="evenodd">
        <path d="M998,467 C998,475.666667 994.666667,483.333333 988,490 L522,956 C515.333333,962.666667 507.666667,966 499,966 C490.333333,966 482.666667,962.666667 476,956 L10,490 C3.33333333,483.333333 0,475.666667 0,467 C0,458.333333 3.33333333,450.666667 10,444 L60,394 C66.6666667,387.333333 74.3333333,384 83,384 C91.6666667,384 99.3333333,387.333333 106,394 L499,787 L892,394 C898.666667,387.333333 906.333333,384 915,384 C923.666667,384 931.333333,387.333333 938,394 L988,444 C994.666667,450.666667 998,458.333333 998,467 Z M998,83 C998,91.6666667 994.666667,99.3333333 988,106 L522,572 C515.333333,578.666667 507.666667,582 499,582 C490.333333,582 482.666667,578.666667 476,572 L10,106 C3.33333333,99.3333333 0,91.6666667 0,83 C0,74.3333333 3.33333333,66.6666667 10,60 L60,10 C66.6666667,3.33333333 74.3333333,0 83,0 C91.6666667,0 99.3333333,3.33333333 106,10 L499,403 L892,10 C898.666667,3.33333333 906.333333,0 915,0 C923.666667,0 931.333333,3.33333333 938,10 L988,60 C994.666667,66.6666667 998,74.3333333 998,83 Z" id="Shape" fill="#FFFFFF"></path>
    </g>
</svg>